<?xml version="1.0" encoding="utf-8"?>
<!-- Generator: Adobe Illustrator 27.0.0, SVG Export Plug-In . SVG Version: 6.00 Build 0)  -->
<svg version="1.1" id="图层_1" xmlns="http://www.w3.org/2000/svg" xmlns:xlink="http://www.w3.org/1999/xlink" x="0px" y="0px"
	 viewBox="0 0 173.8 151.2" style="enable-background:new 0 0 173.8 151.2;" xml:space="preserve">
<style type="text/css">
	.st0{fill:#231815;}
	.st1{opacity:0.7;fill:#231815;}
	.st2{opacity:0.8;fill:#231815;}
	.st3{opacity:0.9;fill:#231815;}
</style>
<g>
	<g>
		<g>
			<path class="st0" d="M18.4,125.4H0v25.4h18.4c6.6,0,12.3-4.1,12.3-12.7C30.8,129.5,25,125.4,18.4,125.4z M16,145.4H6.5v-14.4H16
				c4.9,0,8.3,1.1,8.3,7.2C24.2,144.3,20.9,145.4,16,145.4z"/>
			<path class="st0" d="M60.9,138.1c0,3.5-1,7.6-9.4,7.6c-8.5,0-9.4-4.1-9.4-7.6v-12.7h-6.5v12.7c0,8.9,4.8,13.1,16,13.1
				c11.1,0,16-4.3,16-13.1v-12.7h-6.5V138.1z"/>
			<path class="st0" d="M100.2,137.1c1.3-1.4,2-3.2,2-4.9c0-3.7-1.8-6.7-7.5-6.7H72.3v25.4h23.2c5.8,0,8.3-3.1,8.3-7.4
				C103.8,140.5,102.4,138.4,100.2,137.1z M78.8,130.2h13.5c1.8,0,3.4,0,3.4,2.6c0,2.6-1.6,2.6-3.3,2.6h0H78.8V130.2z M93.9,145.8
				H78.8v-5.4h15.1c1.7,0,3.3,0,3.3,2.7C97.3,145.8,95.7,145.8,93.9,145.8z"/>
			<polygon class="st0" points="135.3,135.4 114.6,135.4 114.6,125.4 108.1,125.4 108.1,150.8 114.6,150.8 114.6,140.9 135.3,140.9 
				135.3,150.8 141.8,150.8 141.8,125.4 135.3,125.4 			"/>
			<polygon class="st0" points="173.8,130.6 173.8,125.4 146.9,125.4 146.9,150.8 173.8,150.8 173.8,145.6 153.5,145.6 153.5,140.5 
				173.8,140.5 173.8,135.8 153.5,135.8 153.5,130.6 			"/>
		</g>
	</g>
	<g>
		<rect x="37.5" y="86.6" class="st1" width="14.8" height="14.8"/>
		<rect x="37.2" y="58.1" class="st2" width="14.8" height="14.8"/>
		<rect x="65.8" y="58.1" class="st2" width="14.8" height="14.8"/>
		<rect x="37.2" y="28.6" class="st3" width="14.8" height="14.8"/>
		<rect x="37.2" class="st0" width="14.8" height="14.8"/>
		<rect x="65.8" y="28.6" class="st3" width="14.8" height="14.8"/>
		<rect x="65.8" class="st0" width="14.8" height="14.8"/>
		<path class="st0" d="M116.9,50.8c0-12.2-9.9-22.2-22.2-22.2v13.9c4.5,0,8.2,3.7,8.2,8.2S99.3,59,94.7,59v13.9
			C107,72.9,116.9,63,116.9,50.8z"/>
		<path class="st0" d="M95.1,0.1v14.8c19.8,0,35.8,16,35.8,35.8c0,19.8-16,35.8-35.7,35.8c0,0-0.1,0-0.1,0H80.6h-2H66v14.8h12.6h2
			h14.7c0,0,0,0,0.1,0c27.8-0.2,50.4-22.8,50.4-50.7C145.8,22.8,123.1,0.1,95.1,0.1z"/>
	</g>
</g>
</svg>
